<?xml version="1.0" encoding="UTF-8"?>
<svg id="_レイヤー_2" data-name="レイヤー_2" xmlns="http://www.w3.org/2000/svg" viewBox="0 0 1184.1 221.01">
  <defs>
    <style>
      .cls-1 {
        fill: #fff;
      }
    </style>
  </defs>
  <g id="_レイヤー_1-2" data-name="レイヤー_1">
    <g>
      <g>
        <path class="cls-1" d="M1123.29.87h60.8v219.13h-60.8V.87Z"/>
        <path class="cls-1" d="M1065.55,49.53c-9.72-16.13-23.09-28.38-40.1-36.74-17.01-8.36-36.5-12.54-58.47-12.54s-43.26,4.52-60.94,13.56c-17.69,9.04-31.49,22.02-41.41,38.93-9.91,16.91-14.87,36.74-14.87,59.49s4.86,41.89,14.58,58.03c9.72,16.14,23.08,28.39,40.09,36.74,17.01,8.36,36.5,12.54,58.47,12.54s43.25-4.52,60.94-13.56c17.69-9.04,31.49-22.02,41.41-38.93,9.92-16.91,14.87-36.74,14.87-59.49s-4.86-41.89-14.58-58.03ZM986.7,166.54c-23.31,9.37-50.16-.35-61.66-22.56-6.96-13.43-7.19-27.32-1.66-41.31,3.95-9.99,9.65-19.03,15.7-27.85,8.66-12.63,18.23-24.57,28.3-36.1.28-.32.58-.63.95-1.03.58.65,1.11,1.23,1.62,1.82,9.51,11.08,18.68,22.44,26.99,34.45,5.53,7.99,10.73,16.19,14.8,25.05,3.28,7.14,5.43,14.57,5.42,22.5,0,20.01-11.89,37.56-30.47,45.03Z"/>
        <path class="cls-1" d="M834.02,28.24c-1.8-3.92-4.1-7.55-6.55-11.08-3.68-5.31-7.73-10.34-11.94-15.24-.23-.26-.46-.52-.72-.81-.17.18-.3.32-.42.46-4.46,5.1-8.69,10.38-12.52,15.97-2.68,3.9-5.2,7.9-6.95,12.32-2.45,6.19-2.34,12.34.73,18.28,2.96,5.71,8.21,9.54,14.11,10.94.48,7.44.29,16.61.29,33.02v43.04c0,24.28-4.92,42.44-14.75,54.48-9.83,12.04-23.18,18.06-40.03,18.06s-29.95-6.17-39.28-18.51c-9.33-12.34-14-30.85-14-55.54V0h-60.8v132.44c0,18.47,3.21,34.12,9.63,46.96,6.42,12.85,16.35,22.68,29.8,29.5,13.44,6.82,30.4,10.23,50.87,10.23,29.5,0,50.97-7.17,64.41-21.52,13.44-14.35,20.17-35.67,20.17-63.96v-41.54c0-16.73-.3-25.47.09-32.47,2.27-.14,4.55-.62,6.77-1.51,8.22-3.3,13.48-11.07,13.48-19.92,0-3.51-.95-6.79-2.4-9.95Z"/>
        <path class="cls-1" d="M393.71,28.24c-1.8-3.92-4.1-7.55-6.55-11.08-3.68-5.31-7.73-10.34-11.94-15.24-.23-.26-.46-.52-.72-.81-.17.18-.3.32-.42.46-4.46,5.1-8.69,10.38-12.52,15.97-2.68,3.9-5.2,7.9-6.95,12.32-2.45,6.19-2.34,12.34.73,18.28,2.96,5.71,8.21,9.54,14.11,10.94.48,7.44.29,16.61.29,33.02v43.04c0,24.28-4.92,42.44-14.75,54.48-9.83,12.04-23.18,18.06-40.03,18.06s-29.95-6.17-39.28-18.51c-9.33-12.34-14-30.85-14-55.54V0h-60.8v132.44c0,18.47,3.21,34.12,9.63,46.96,6.42,12.85,16.35,22.68,29.8,29.5,13.44,6.82,30.4,10.23,50.87,10.23,29.5,0,50.97-7.17,64.41-21.52,13.44-14.35,20.17-35.67,20.17-63.96v-41.54c0-16.73-.3-25.47.09-32.47,2.27-.14,4.55-.62,6.77-1.51,8.22-3.3,13.48-11.07,13.48-19.92,0-3.51-.95-6.79-2.4-9.95Z"/>
        <path class="cls-1" d="M548.8,107.68c6.32-1.93,12.28-4.17,17.86-6.73,10.73-4.91,19.31-11.29,25.74-19.11,6.42-7.83,9.63-16.96,9.63-27.39,0-18.06-7.98-31.5-23.93-40.33-15.95-8.83-40.39-13.24-73.29-13.24h-80.37v219.13h60.8v-100.53h1.81c2.21,0,4.21.35,6.02,1.05,1.81.71,3.81,2.16,6.02,4.36l92.84,94.95h13.46l37.39-1.5-93.97-110.66ZM533.96,52.46c3.01-2.42,6.93-2.19,9.59.61.66.7,1.27,1.51,1.65,2.38,1.76,3.99,1.47,7.84-1.02,11.47-.68.98-1.56,1.77-2.59,2.38-2.55,1.5-5.46,1.32-7.81-.49-1.3-1-2.2-2.3-2.8-3.82-.85-2.13-1.01-4.65-.25-7.75.37-1.43,1.44-3.34,3.24-4.79ZM517.07,35.62c.46-2.03,1.43-3.76,2.96-5.16,3.24-2.96,7.73-2.67,10.48.75,2.46,3.07,2.79,6.57,1.72,10.25-.45,1.55-1.25,2.93-2.4,4.1-3.46,3.52-8.52,3.11-11.3-.96-1.87-2.74-2.23-5.78-1.46-8.97ZM497.7,30.67c.51-.81,1.2-1.55,1.94-2.15,3.14-2.54,7.21-2.16,9.87.91,2.08,2.41,2.69,5.27,2.34,8.37-.05.48-.18.95-.28,1.43-.48,2.02-1.46,3.75-3,5.14-3.19,2.89-7.57,2.61-10.34-.68-.53-.63-1.02-1.34-1.34-2.1-1.63-3.77-1.4-7.45.81-10.93ZM482.41,49.01c3.33-3.08,8.03-2.68,10.76.97,2.1,2.81,2.43,5.97,1.79,9.04-.6,2.27-1.55,4.03-3.09,5.42-3.23,2.94-7.74,2.59-10.5-.79-3.37-4.12-2.88-11.02,1.03-14.64ZM523.21,93.19c-1.22-.19-2.46-.54-3.57-1.08-6.11-2.99-12.4-3.36-18.85-1.39-3.1.95-6.06.68-8.83-.98-6.2-3.71-6.88-12.39-1.36-17.06.42-.36.89-.67,1.34-1,3.53-2.56,6.06-5.87,7.64-9.93.5-1.29,1.02-2.59,1.68-3.81,3.02-5.63,8.18-7.89,14.7-6.27,2.83.64,5.18,2.47,6.83,5.22,1.13,1.87,1.78,3.91,2.2,6.04.58,2.97,1.72,5.71,3.41,8.23,1.01,1.51,2.23,2.83,3.51,4.11,2.46,2.47,3.5,5.46,3.06,8.93-.73,5.78-6.17,9.86-11.75,8.98Z"/>
      </g>
      <path class="cls-1" d="M81.12,1.01c.97,1.09,1.84,2.05,2.69,3.03,15.8,18.41,31.03,37.29,44.85,57.24,9.19,13.27,17.83,26.9,24.6,41.62,5.46,11.87,9.02,24.2,9.01,37.38-.01,33.24-19.76,62.4-50.62,74.81-38.73,15.58-83.34-.59-102.45-37.48-11.56-22.32-11.94-45.4-2.76-68.64,6.56-16.61,16.04-31.62,26.08-46.27,14.39-20.99,30.28-40.82,47.01-59.98.47-.54.96-1.05,1.58-1.72ZM118.06,166.25c-.58-.9-.96-1.61-1.46-2.23-1.75-2.15-3.33-4.49-5.36-6.34-5.85-5.34-10.33-11.62-14.01-18.61-3.35-6.36-8.79-10.27-15.95-10.9-8.6-.76-15.32,3.01-19.32,10.59-3.7,7-8.16,13.27-14.05,18.56-1.19,1.07-2.23,2.32-3.25,3.55-2.67,3.24-4.8,6.77-5.73,10.95-1.97,8.88,2.51,17.37,10.85,20.54,1.25.47,2.15.47,3.3-.54,5.43-4.77,10.99-9.39,16.51-14.06,2.77-2.34,5.55-4.68,8.41-7.1,5.79,5.19,11.46,10.27,17.1,15.33,7.76-6.68,15.28-13.15,22.94-19.75ZM44.32,97.94c.21,6.96,2.36,14.52,8.45,20.53,2.56,2.53,5.58,4.25,9.28,4.35,5.44.15,10.02-3.59,11.98-9.77,2.08-6.55,1.77-13.13-.36-19.58-1.74-5.28-4.51-9.96-9.14-13.31-6.26-4.53-13.28-3.08-17.17,3.61-2.3,3.95-3.04,8.32-3.06,14.17ZM115.32,96.69c-.42-2.73-.76-5.47-1.3-8.17-.27-1.34-.84-2.64-1.44-3.88-3.71-7.65-11.54-9.54-18.17-4.2-6.67,5.37-9.53,12.74-10.11,21.06-.4,5.7.26,11.26,3.57,16.14,3.76,5.55,10.11,6.88,15.7,3.17,1.97-1.3,3.76-3.04,5.24-4.89,4.47-5.57,6.17-12.13,6.51-19.23ZM17.85,125.25c-.11,10.49,5.19,20.19,13.04,24.51,7.71,4.24,15.44.73,17.28-7.84,2.14-9.94-3.57-22.71-12.38-27.71-7.98-4.53-15.78-1-17.6,7.99-.24,1.21-.28,2.46-.35,3.05ZM110.52,137.15c.19,1.51.28,3.05.58,4.54,1.78,8.86,9.65,12.41,17.44,7.89,8.8-5.11,14.35-17.64,12.21-27.56-1.94-9.02-9.76-12.51-17.65-7.67-8.43,5.17-11.95,13.19-12.58,22.8ZM154.79,141.61c-5.21,1.14-10.41,2.28-15.93,3.5,1.55,1.72,2.84,3.16,4.18,4.64-16.07,13.92-31.95,27.67-47.93,41.52-5.8-5.2-11.48-10.29-17.11-15.33-12.02,10.05-23.89,19.97-35.93,30.04,1.25.86,2.37,1.62,3.51,2.4,10.83-9.05,21.51-17.98,32.26-26.96,5.81,5.1,11.5,10.09,17.29,15.17,16.97-14.64,33.85-29.2,50.79-43.81,1.42,1.63,2.58,2.96,3.89,4.47,1.78-5.24,3.44-10.14,5.1-15.04.04-.11-.05-.26-.12-.61Z"/>
    </g>
  </g>
</svg>